<?xml version="1.0" encoding="UTF-8" standalone="no"?>
<!-- Created with Inkscape (http://www.inkscape.org/) -->

<svg
   width="65mm"
   height="80mm"
   viewBox="0 0 65 80"
   version="1.1"
   id="svg1"
   xml:space="preserve"
   inkscape:version="1.3.2 (091e20ef0f, 2023-11-25)"
   sodipodi:docname="lattes.svg"
   xmlns:inkscape="http://www.inkscape.org/namespaces/inkscape"
   xmlns:sodipodi="http://sodipodi.sourceforge.net/DTD/sodipodi-0.dtd"
   xmlns="http://www.w3.org/2000/svg"
   xmlns:svg="http://www.w3.org/2000/svg"><sodipodi:namedview
     id="namedview1"
     pagecolor="#ffffff"
     bordercolor="#000000"
     borderopacity="0.25"
     inkscape:showpageshadow="2"
     inkscape:pageopacity="0.0"
     inkscape:pagecheckerboard="0"
     inkscape:deskcolor="#d1d1d1"
     inkscape:document-units="mm"
     inkscape:zoom="0.74386223"
     inkscape:cx="397.25098"
     inkscape:cy="561.25984"
     inkscape:window-width="2560"
     inkscape:window-height="1017"
     inkscape:window-x="0"
     inkscape:window-y="26"
     inkscape:window-maximized="1"
     inkscape:current-layer="layer1" /><defs
     id="defs1" /><g
     inkscape:label="Layer 1"
     inkscape:groupmode="layer"
     id="layer1"><path
       style="fill:#000000"
       d="m 12.391675,61.420252 c -2.6664046,-7.02138 -5.2655001,-13.86654 -5.7757698,-15.21146 -0.5102697,-1.34492 -0.8754074,-2.49767 -0.8114167,-2.56166 0.06399,-0.064 2.1385978,0.39858 4.6102395,1.02793 5.428065,1.38215 9.315689,1.96893 14.415772,2.17588 12.421077,0.50401 22.960007,-3.76938 26.384607,-10.69857 0.84301,-1.70573 0.98599,-2.27155 1.08213,-4.28246 0.12298,-2.57217 -0.29584,-4.87865 -1.39113,-7.66117 -1.66019,-4.21759 -1.12075,-4.62943 1.90685,-1.4558 2.62869,2.75547 4.50911,5.43775 5.90053,8.41665 1.62549,3.48003 1.94307,5.03264 1.95284,9.54701 0.01,4.40417 -0.1652,5.15159 -2.24596,9.60723 -3.36961,7.21556 -9.60476,12.96299 -18.84598,17.371838 -5.19129,2.47668 -11.48048,4.57902 -16.650361,5.56583 -1.207012,0.23039 -2.693776,0.532739 -3.303918,0.67189 -2.364413,0.539238 -1.884348,1.599416 -6.470217,-10.513176 -0.238648,-0.630337 -0.491015,-1.296348 -0.758216,-1.999962 z m 10.322158,-16.63199 c -2.255573,-0.41953 -6.958542,-1.27201 -10.451042,-1.8944 l -6.3499985,-1.13162 -0.3151367,-1.2705 c -1.011227,-4.07685 -1.270156,-6.46928 -1.264261,-11.68139 0.0052,-4.61285 0.0834,-5.60189 0.609472,-7.70998 0.9910347,-3.97132 3.4784175,-8.20661 6.1942722,-10.54703 2.663155,-2.2950095 6.939041,-4.1377183 10.408698,-4.485668 0.860679,-0.0863 2.041121,-0.20263 2.623204,-0.25848 1.693538,-0.16248 6.792946,0.3270297 9.451676,0.9073094 5.73961,1.2526894 14.49583,4.7400386 14.70384,5.8561186 0.13273,0.71216 -1.06575,0.80404 -4.51988,0.34652 -4.02302,-0.53288 -9.32906,-0.59675 -11.43355,-0.13762 -2.22913,0.48632 -4.855034,1.73078 -5.993054,2.8402 -0.531283,0.51793 -1.348214,1.77099 -1.815403,2.78457 -0.726024,1.57513 -0.869332,2.23413 -0.986398,4.53596 -0.241397,4.74655 1.058117,11.23722 3.505674,17.50977 0.681391,1.74625 1.400781,3.62148 1.598651,4.16719 l 0.35976,0.99218 -1.11274,-0.0302 c -0.612008,-0.0166 -2.958211,-0.37342 -5.213784,-0.79295 z m 13.622954,-7.87511 c -5.71372,-2.09884 -9.38962,-6.45991 -9.38962,-11.13979 0,-2.94746 1.27313,-5.00027 3.96875,-6.39926 1.03468,-0.53698 1.55448,-0.61576 3.96875,-0.60148 2.39531,0.0142 3.0151,0.11494 4.49792,0.73133 2.08035,0.86478 4.85689,2.90049 6.21263,4.55498 3.77869,4.61141 3.1674,10.14329 -1.37483,12.44145 -1.29931,0.6574 -1.85415,0.77175 -4.03211,0.83108 -1.92783,0.0525 -2.83929,-0.0465 -3.85149,-0.41831 z"
       id="path1"
       sodipodi:nodetypes="ssscssssssccssssscscsccsccssssssssscccccsscscscc" /></g></svg>
