<?xml version="1.0" encoding="UTF-8" standalone="no"?>
<!-- Created with Inkscape (http://www.inkscape.org/) -->

<svg version="1.1" id="svg1" width="1066.6667" height="1100.667" viewBox="0 0 1066.6667 1100.6669"
  sodipodi:docname="researchgate.svg" inkscape:version="1.3.2 (091e20ef0f, 2023-11-25)"
  xmlns:inkscape="http://www.inkscape.org/namespaces/inkscape"
  xmlns:sodipodi="http://sodipodi.sourceforge.net/DTD/sodipodi-0.dtd" xmlns="http://www.w3.org/2000/svg"
  xmlns:svg="http://www.w3.org/2000/svg">
  <defs id="defs1" />
  <sodipodi:namedview id="namedview1" pagecolor="#ffffff" bordercolor="#000000" borderopacity="0.25"
    inkscape:showpageshadow="2" inkscape:pageopacity="0.0" inkscape:pagecheckerboard="0" inkscape:deskcolor="#d1d1d1"
    inkscape:zoom="0.78281244" inkscape:cx="533.33337" inkscape:cy="247.18565" inkscape:window-width="2560"
    inkscape:window-height="1017" inkscape:window-x="0" inkscape:window-y="26" inkscape:window-maximized="1"
    inkscape:current-layer="g1" />
  <g inkscape:groupmode="layer" inkscape:label="Image" id="g1">
    <path style="fill:#000000"
      d="m 674.6003,1082.4283 c -51.63339,-5.8744 -96.38718,-26.5041 -130.06127,-59.953 C 502.33162,980.55007 421.58088,863.05727 353.47461,744.47521 l -15.3157,-26.66667 -39.11265,-0.80852 c -21.51196,-0.44468 -43.76266,-1.24587 -49.44599,-1.78042 l -10.33334,-0.97191 0.0117,109.78048 c 0.0116,109.0655 0.85606,137.7211 4.5801,155.4245 4.33438,20.60503 11.94285,33.53593 23.73023,40.33073 9.91798,5.7172 13.38462,6.4888 53.67797,11.9474 l 36,4.877 0.37096,18.2671 0.37096,18.2671 -7.70429,-0.021 c -4.23736,-0.012 -24.5043,-0.6337 -45.03763,-1.3825 -48.29363,-1.7614 -170.4109,-1.7673 -214.000024,-0.01 -18.7,0.7537 -37.76693,1.3802 -42.37096,1.3921 l -8.37096,0.022 0.37096,-18.2322 0.37096,-18.2322 26.81246,-4.9358 c 14.74685,-2.7148 29.14685,-5.6922 32.000004,-6.6165 25.81327,-8.3631 36.52237,-26.52663 40.47555,-68.65003 1.89936,-20.2387 1.88916,-539.91338 -0.011,-560.00009 -2.91115,-30.77416 -8.70451,-46.88674 -20.84931,-57.9864 -9.02364,-8.24711 -16.15926,-10.88463 -43.337734,-16.01882 -11.96616,-2.26049 -24.92328,-4.73005 -28.79361,-5.48792 l -7.03696,-1.37794 0.37029,-17.76037 0.3703,-17.76038 122.000014,-1.01938 c 204.88729,-1.71196 242.34527,-1.55864 259.66501,1.06284 62.4252,9.44852 107.96091,29.42714 142.17028,62.37666 35.34296,34.04137 52.98366,75.02408 56.25301,130.68641 5.81378,98.98257 -67.78513,197.90092 -168.98343,227.11698 l -10.46103,3.02011 17.11926,28.57412 c 45.23788,75.50748 90.14366,138.99018 143.77315,203.25028 34.47448,41.3081 55.53467,61.8917 80.2522,78.43613 19.7349,13.2093 45.0677,23.6948 61.7463,25.5574 3.92258,0.4381 9.08196,1.0938 11.46529,1.4572 l 4.33334,0.6607 v 16.0076 16.0077 l -5,2.0971 c -15.22956,6.3879 -55.79828,9.9204 -81.00001,7.0531 z M 358.60028,658.44755 c 83.61406,-9.33065 137.63174,-56.2076 152.07564,-131.97236 3.27362,-17.17163 3.31289,-53.12844 0.0765,-70 -6.31207,-32.9049 -16.96326,-55.10043 -36.06596,-75.15626 -15.60128,-16.3797 -33.90623,-27.92396 -57.16826,-36.05392 -29.4623,-10.29693 -58.9524,-12.77359 -129.26845,-10.85637 -25.49281,0.69509 -46.94282,1.62982 -47.66667,2.07719 -0.85403,0.52781 -1.31611,56.69859 -1.31611,159.98635 v 159.17296 l 5.66667,0.8067 c 20.53136,2.92281 93.82665,4.2097 113.66668,1.99571 z m 480.6667,-203.18424 c -57.79128,-10.2397 -94.15612,-40.64858 -113.21999,-94.67644 -8.62313,-24.43834 -12.10251,-59.92785 -12.10251,-123.44503 0,-76.86505 4.45089,-109.00808 19.51448,-140.928128 14.44624,-30.61186 39.46036,-54.26855 70.91949,-67.07094 25.27408,-10.28536 59.49675,-14.27907 90.22184,-10.5287 51.956,6.34186 90.375,31.88073 114.66361,76.22213 7.5608,13.803208 7.8665,13.443448 -21.64311,25.473878 -13.7613,5.61018 -26.0355,10.19239 -27.276,10.1827 -1.4349,-0.0112 -5.0282,-4.74779 -9.8757,-13.01762 -13.1389,-22.414918 -30.4901,-36.444478 -52.5354,-42.478218 -13.4395,-3.67832 -43.10959,-3.31196 -54.66671,0.67503 -17.97928,6.20251 -38.86006,23.269922 -48.03046,39.258858 -4.88383,8.51514 -10.22598,24.26444 -12.85158,37.88799 -2.67023,13.85507 -4.06432,118.94726 -1.95981,147.73869 3.53388,48.34658 16.73558,72.9602 47.07829,87.77408 44.42654,21.68987 100.45347,7.33945 120.86577,-30.95786 2.296,-4.30784 6.0532,-14.97231 8.3493,-23.69883 3.7749,-14.34691 4.1926,-17.90942 4.3616,-37.19973 l 0.1869,-21.33333 -39.8877,-0.35351 c -26.7134,-0.23676 -40.4753,-0.84116 -41.6667,-1.82993 -2.4216,-2.00979 -2.5853,-49.14359 -0.1789,-51.5499 1.8612,-1.86125 141.84821,-2.33257 144.75521,-0.48737 2.2534,1.43034 2.5389,73.60646 0.3727,94.22071 -8.2017,78.04951 -45.41911,122.57018 -116.06131,138.8364 -12.1722,2.8028 -56.16545,3.61821 -69.33331,1.28507 z"
      id="path1" />
  </g>
</svg>