<?xml version="1.0" encoding="UTF-8" standalone="no"?>
<!-- Created with Inkscape (http://www.inkscape.org/) -->

<svg
   version="1.1"
   id="svg1"
   width="800"
   height="800"
   viewBox="0 0 800 800"
   sodipodi:docname="coloured-3.svg"
   inkscape:export-filename="_408fc56f-6ca2-4c23-8530-b963657a78a5.jpeg.svg"
   inkscape:export-xdpi="96"
   inkscape:export-ydpi="96"
   inkscape:version="1.3.2 (091e20ef0f, 2023-11-25)"
   xmlns:inkscape="http://www.inkscape.org/namespaces/inkscape"
   xmlns:sodipodi="http://sodipodi.sourceforge.net/DTD/sodipodi-0.dtd"
   xmlns:xlink="http://www.w3.org/1999/xlink"
   xmlns="http://www.w3.org/2000/svg"
   xmlns:svg="http://www.w3.org/2000/svg">
  <sodipodi:namedview
     id="namedview1"
     pagecolor="#ffffff"
     bordercolor="#000000"
     borderopacity="0.25"
     inkscape:showpageshadow="2"
     inkscape:pageopacity="0.0"
     inkscape:pagecheckerboard="0"
     inkscape:deskcolor="#d1d1d1"
     inkscape:zoom="0.81542969"
     inkscape:cx="594.16527"
     inkscape:cy="413.89221"
     inkscape:window-width="2560"
     inkscape:window-height="1017"
     inkscape:window-x="0"
     inkscape:window-y="26"
     inkscape:window-maximized="1"
     inkscape:current-layer="g1" />
  <defs
     id="defs1">
    <linearGradient
       id="linearGradient1"
       inkscape:collect="always">
      <stop
         style="stop-color:#00a5a9;stop-opacity:1;"
         offset="0"
         id="stop1" />
      <stop
         style="stop-color:#7ba861;stop-opacity:0.99990714;"
         offset="0.5"
         id="stop3" />
      <stop
         style="stop-color:#d10042;stop-opacity:1;"
         offset="1"
         id="stop2" />
    </linearGradient>
    <linearGradient
       inkscape:collect="always"
       xlink:href="#linearGradient1"
       id="linearGradient2"
       x1="17.613783"
       y1="400"
       x2="782.38623"
       y2="400"
       gradientUnits="userSpaceOnUse"
       gradientTransform="rotate(-45.045209,402.84391,399.82516)" />
  </defs>
  <g
     inkscape:groupmode="layer"
     inkscape:label="Image"
     id="g1">
    <path
       style="fill:url(#linearGradient2)"
       d="m 655.90939,668.49461 -7.43262,-7.42092 6.71221,-6.72281 6.71221,-6.72281 -4.16146,-4.1549 -4.16145,-4.1549 -8.08843,7.11516 c -24.32916,21.40162 -57.61962,35.75242 -90.73467,39.11372 -36.66584,3.72175 -79.88755,-6.70977 -112.6958,-27.199 -18.47498,-11.53788 -40.75497,-33.07505 -52.62079,-50.8664 -34.7047,-52.03539 -39.95197,-117.69522 -13.63409,-170.60498 6.42373,-12.9143 13.56958,-23.53173 28.02887,-41.64568 13.44817,-16.84731 21.59713,-30.04495 27.64969,-44.78001 24.03356,-58.51024 10.93975,-126.81389 -33.56689,-175.10075 -52.72476,-57.20309 -139.59971,-72.80133 -209.14295,-37.55127 -5.16311,2.61708 -9.59229,4.78225 -9.84263,4.8115 -0.58645,0.0685 -11.94054,-11.59007 -11.94107,-12.26131 -2.2e-4,-0.27889 5.35277,-4.5112 11.89555,-9.40513 6.54277,-4.89391 11.89574,-9.15353 11.89549,-9.46581 -2.4e-4,-0.31229 -1.88058,-3.42553 -4.17852,-6.91834 -2.29794,-3.4928 -4.40989,-6.843052 -4.69324,-7.444991 -0.85825,-1.82332 28.89189,-21.463615 31.56096,-20.83575 0.47238,0.111128 2.49992,3.095942 4.50565,6.632937 2.00573,3.536982 4.11501,6.898369 4.68729,7.469738 0.84813,0.846792 10.02498,-3.230942 14.99897,-6.664795 0.37463,-0.258594 -1.01673,-3.75732 -3.09184,-7.774908 -2.34645,-4.542962 -3.33786,-7.502115 -2.62223,-7.826851 0.63288,-0.287171 3.48778,-1.812763 6.34418,-3.390162 2.85643,-1.577428 5.7151,-2.745389 6.35257,-2.59544 0.63747,0.149934 2.76643,2.990712 4.73109,6.312805 1.96464,3.322074 4.206,6.315058 4.98083,6.651025 0.77482,0.335968 4.14475,-0.616441 7.48873,-2.116464 7.02988,-3.1534 6.90307,-2.389337 2.15639,-12.990633 -3.72629,-8.32231 -4.30835,-7.581916 10.75641,-13.682291 19.29588,-7.813763 52.43199,-17.244553 67.99456,-19.351749 l 4.045,-0.547716 1.30523,9.196312 c 0.71783,5.058028 1.70236,9.373514 2.18777,9.590083 0.48541,0.216525 6.89023,-0.284901 14.23298,-1.114368 7.34275,-0.829474 13.69529,-1.37582 14.11679,-1.214151 1.91361,0.734338 2.3632,-2.021266 1.71807,-10.531398 -0.38244,-5.045056 -0.45253,-9.432486 -0.15576,-9.749885 0.45055,-0.481824 8.07968,-0.973084 22.84638,-1.471074 2.66694,-0.08998 2.70141,0.03219 2.74639,9.743683 l 0.0456,9.834766 4.32362,0.141365 c 2.37801,0.07771 6.8016,0.187331 9.83026,0.243563 l 5.50659,0.102272 0.24173,-3.548164 c 0.13292,-1.951461 0.33632,-6.52438 0.45208,-10.16213 l 0.21036,-6.61397 5.34286,0.310024 c 13.48971,0.782626 34.44076,2.507779 35.90817,2.956716 1.20486,0.368526 1.36659,3.117809 0.62692,10.65654 -0.54822,5.587894 -0.73797,10.418329 -0.42159,10.734213 0.31636,0.315872 5.63918,1.68929 11.82847,3.051997 6.18922,1.362774 16.40885,3.753828 22.71015,5.313571 l 11.45706,2.835764 2.17013,-8.346326 c 1.19355,-4.59045 2.36005,-8.53654 2.59223,-8.769074 0.77395,-0.77518 19.1514,5.366231 31.5671,10.549194 11.85084,4.947106 29.52771,13.610069 34.85307,17.080533 l 2.5896,1.687627 -4.63878,8.639238 -4.63876,8.639249 7.19152,4.337304 c 3.95541,2.385437 7.32699,4.358531 7.49242,4.384644 0.16584,0.02569 2.36139,-3.052374 4.8798,-6.840932 2.51839,-3.788564 5.22013,-7.174468 6.0039,-7.524262 1.44679,-0.645742 13.22734,6.808683 13.22854,8.370644 3.5e-4,0.438132 -2.3213,4.124663 -5.15926,8.192205 l -5.16002,7.395732 6.76914,5.03575 c 5.88085,4.37498 21.48411,17.36524 30.76362,25.61185 l 2.995,2.66159 7.41877,-7.43047 7.41875,-7.43048 6.2346,5.78585 c 8.01696,7.44021 26.27849,28.18601 34.4295,39.11333 6.28958,8.43195 18.88,26.6535 18.97605,27.46345 0.0465,0.39135 -12.26488,8.88255 -15.50785,10.6958 -1.17029,0.65433 -0.18314,2.94816 5.14926,11.96486 3.6284,6.13545 9.06136,16.10324 12.07324,22.15066 3.01181,6.04749 5.81014,10.99509 6.21843,10.99479 0.40829,-3.2e-4 4.70919,-1.58244 9.5575,-3.51574 5.43164,-2.16597 9.07937,-3.07644 9.50344,-2.37211 2.57542,4.27782 17.50504,46.20998 17.66545,49.61644 0.009,0.19546 -4.02673,1.47756 -8.96886,2.84919 -4.94205,1.37154 -9.09966,2.97887 -9.23916,3.57186 -0.1395,0.59298 0.96093,6.14733 2.44532,12.34304 3.14717,13.13566 6.88085,36.06548 8.19025,50.29929 l 0.91809,9.97969 10.09842,-0.2265 10.09834,-0.22643 0.073,8.45301 0.073,8.45297 -9.89925,0.55635 -9.89925,0.55634 -0.0372,8.34492 c -0.0205,4.58967 0.13332,8.5125 0.34174,8.71734 0.20681,0.20643 4.84627,0.67479 10.30642,1.04426 l 9.92746,0.67184 -0.31008,7.16993 c -1.09058,25.21825 -6.98585,59.03286 -14.48469,83.08296 l -2.53824,8.14045 -9.22024,-3.3289 c -5.0711,-1.83092 -9.3017,-3.24729 -9.40118,-3.14767 -0.0996,0.0997 -1.33352,3.5808 -2.7421,7.73569 l -2.56116,7.55445 7.6969,3.54269 7.6969,3.54269 -2.47693,6.76214 c -1.36234,3.71921 -2.72973,7.01536 -3.03878,7.32489 -0.30904,0.30953 -3.9899,-0.78054 -8.17981,-2.42226 -4.18984,-1.64177 -7.67442,-2.92843 -7.74353,-2.85922 -0.0693,0.0694 -0.97724,2.57103 -2.018,5.55952 -1.04077,2.98849 -2.12753,5.67897 -2.41493,5.97874 -0.2877,0.29948 -0.67736,1.23859 -0.8666,2.0863 -0.28073,1.25759 0.88285,2.20383 6.32189,5.14103 3.6662,1.97994 6.64286,4.10378 6.61482,4.7196 -0.0577,1.26435 -4.89601,11.98325 -5.83234,12.92107 -0.33461,0.33513 -3.88764,-0.91403 -7.89562,-2.77591 -5.63413,-2.6173 -7.44094,-3.03942 -7.96474,-1.8608 -0.37262,0.83844 -1.97649,3.90893 -3.56418,6.82332 -1.59195,2.92222 -2.47625,5.70953 -1.9716,6.21446 0.50329,0.50358 3.50076,2.4603 6.66104,4.34826 3.16027,1.888 5.74621,3.74836 5.74651,4.13421 9.7e-4,1.21505 -6.79653,13.02469 -7.60745,13.21679 -0.42541,0.10078 -3.80054,-1.63355 -7.50026,-3.85406 -5.97995,-3.58908 -6.84406,-3.83525 -7.78341,-2.21701 -0.58114,1.00116 -2.37469,3.90708 -3.98564,6.45759 -1.61096,2.55051 -2.69768,5.15561 -2.41495,5.78911 0.28275,0.63349 3.54612,3.28725 7.25195,5.89724 7.78595,5.48358 7.76384,3.92526 0.20932,14.75886 -7.68545,11.02136 -20.94166,27.30356 -31.57224,38.77923 l -9.69079,10.46115 z M 693.9759,456.67682 c 4.83525,-5.0175 6.09191,-5.88368 7.95724,-11.11137 2.55585,-7.16295 2.16698,-16.21166 -0.93307,-21.71248 -3.34305,-5.39781 -5.17378,-8.09085 -13.03113,-13.62584 l 0.17143,-69.12835 c 0.0943,-38.02063 0.33249,-71.35215 0.52934,-74.07013 l 0.3579,-4.94178 -75.38346,-75.26457 -75.38344,-75.26458 -10.61453,-0.86423 c -5.83795,-0.47535 -14.73501,-1.14305 -19.77123,-1.48379 l -9.15672,-0.6196 -2.11128,-5.07857 c -2.90405,-6.985309 -13.34548,-17.651061 -20.34598,-20.783044 -15.1926,-6.797023 -32.03065,-4.009688 -43.1689,7.146147 l -4.86621,4.873893 -19.09137,-2.704495 c -10.50031,-1.487395 -19.36766,-2.980215 -19.70527,-3.3173 -0.33762,-0.337076 -1.22718,-2.497036 -1.97683,-4.799908 -0.95473,-2.933118 -2.76013,-5.581975 -6.02807,-8.844756 -17.1826,-17.155513 -44.8225,-4.398939 -42.54993,19.637983 1.98299,20.97403 27.84802,30.09022 43.0601,15.17662 l 3.73014,-3.65693 17.42354,2.43191 17.42361,2.43184 0.31177,7.93327 c 0.35869,9.12413 2.51881,15.89673 7.27813,22.81893 8.14627,11.84831 25.63512,18.30212 40.70883,15.02261 l 7.00801,-1.52475 13.48518,13.3848 13.4852,13.3848 37.38733,37.33011 8.33877,8.32563 8.33876,8.32561 -1.47044,44.00327 -1.47054,44.00332 -21.72206,21.75636 -21.72203,21.75635 -3.15608,-1.58669 c -4.81635,-2.42135 -13.80219,-2.6665 -19.63268,-0.53561 -22.56436,8.24665 -22.4763,39.85508 0.13613,48.8436 6.0403,2.40102 15.58078,2.1323 20.35898,-0.57344 10.48877,-5.93946 16.32759,-16.99607 14.71746,-27.86944 l -0.859,-5.80087 24.45892,-24.49757 24.45895,-24.49757 0.5399,-10.80191 c 0.67683,-13.5427 2.63573,-84.92037 2.45321,-89.39234 l -0.13522,-3.31449 -41.98623,-41.92002 -41.98623,-41.92001 2.66063,-3.60531 c 1.46329,-1.98287 3.40684,-5.92442 4.31892,-8.75904 l 1.6583,-5.15376 4.99513,0.33109 c 2.74728,0.18213 9.99271,0.73925 16.10095,1.23802 l 11.10583,0.90695 35.99919,36.32084 35.99924,36.32075 5.12583,48.35238 2.45426,36.39159 c 0.65494,2.1e-4 -0.18426,42.58334 -1.11608,56.63283 l -0.37604,5.66923 -4.8575,1.88244 c -9.3473,3.62244 -16.04305,12.81935 -16.6776,22.90741 -0.51485,8.18415 1.42314,13.66399 7.11348,20.11395 4.26866,4.83846 5.19954,5.43635 11.62317,7.46544 5.18396,1.63738 8.42554,1.92077 12.58226,1.09992 7.33048,-1.44766 14.08692,-5.85406 17.80473,-11.61184 3.86617,-5.98754 4.68248,-9.12707 4.41418,-16.97694 -0.2747,-8.03797 -2.69313,-12.81358 -9.53342,-18.82534 l -4.79737,-4.21622 c -1.03121,-38.62581 -0.51429,-36.00944 -2.15246,-66.78864 -1.1811,-22.19148 -1.0317,-14.34879 -5.7379,-66.53586 -0.0198,-0.21952 12.17929,11.84439 26.72141,26.66514 l 26.43595,26.95102 -0.43585,52.0462 c -0.23968,28.62537 -0.51362,59.62106 -0.60879,68.87934 l -0.17307,16.83327 -5.09784,2.29535 c -13.17119,5.93038 -19.60168,20.36085 -15.23708,34.19312 2.33115,7.38765 9.22653,14.52156 16.74909,17.32847 0.85672,0.42883 20.14461,1.76183 27.07755,-5.43242 z M 467.80309,135.68365 c -8.34291,3.57886 -16.02225,1.749 -22.23574,-5.29845 -7.3786,-8.36885 -7.10166,-17.69775 0.76153,-25.64907 4.84067,-4.894879 8.58148,-6.353972 15.20138,-5.929213 12.74491,0.817755 20.76953,13.098563 16.43505,25.152123 -1.79699,4.9972 -6.12794,9.99402 -10.16222,11.72461 z m 115.05088,417.19278 c 5.34887,-9.74342 7.5123,-18.62876 7.58242,-31.14164 0.0908,-16.19882 -4.50268,-28.85607 -15.25309,-42.02969 -14.11661,-17.29862 -38.91967,-25.65595 -62.3101,-20.99525 -19.51437,3.88838 -35.86906,16.55673 -45.11784,34.94832 -8.51527,16.93298 -8.21989,39.91175 0.75265,58.55139 3.83068,7.95786 13.69883,18.76465 21.87521,23.95594 21.2923,13.51874 49.81985,13.71553 70.7091,0.48775 7.20386,-4.56172 17.22207,-15.50764 21.76165,-23.77682 z m 38.71857,156.93625 c -27.26012,19.05765 -50.29895,31.26888 -82.41669,43.68316 -112.0018,43.2914 -238.23409,33.76095 -337.12498,-25.45266 C 143.35732,692.9108 94.507628,641.1785 62.678989,580.46821 31.544224,521.08146 17.270463,454.03463 21.474351,386.92165 25.843449,317.17123 47.548743,250.80226 83.835088,196.23933 c 9.579214,-14.40404 21.233242,-29.75175 26.905332,-35.4328 l 4.00441,-4.01073 6.28338,6.09084 c 3.45587,3.34995 6.38264,6.6702 6.50397,7.37832 0.12131,0.70812 -2.88846,5.1782 -6.68842,9.93349 -25.972281,32.50199 -45.967273,69.50747 -59.268461,109.69031 -25.664525,77.53241 -26.066643,160.02704 -1.130686,231.95813 13.544628,39.07125 30.433585,70.25421 56.157397,103.6863 10.07259,13.0909 41.9473,45.37662 54.80131,55.50793 26.42714,20.82943 52.81919,37.05218 77.70637,47.7648 60.8731,26.20267 126.34121,35.42663 192.63175,27.14033 60.64065,-7.58005 120.61531,-29.94927 166.00946,-61.91784 6.57504,-4.63043 12.19357,-8.41916 12.48564,-8.41939 0.29206,-2.3e-4 3.38452,3.27928 6.87205,7.28787 l 6.34106,7.28829 -2.60875,2.4859 c -1.43486,1.36721 -5.6056,4.58094 -9.26836,7.1416 z m -221.89868,17.94104 c -6.37855,3.11128 -17.0033,3.22114 -22.30244,0.23061 -6.26795,-3.53721 -11.22336,-9.27137 -13.263,-15.34707 -1.809,-5.38864 -1.83785,-14.00355 -0.0529,-15.79134 0.49437,-0.49515 0.3429,-1.45801 -0.3366,-2.1397 -0.67971,-0.68146 -17.21007,-17.21713 -36.73466,-36.7454 l -35.49921,-35.50597 -2.51875,-14.8742 c -1.38531,-8.18081 -3.31102,-20.13122 -4.27933,-26.55648 -2.86767,-19.02842 -2.22952,-17.43584 -8.3269,-20.78031 -18.85307,-10.34112 -18.19295,-36.21839 1.19337,-46.78153 7.92219,-4.31663 22.99887,-1.93058 29.62903,4.68913 4.19997,4.19334 7.46796,11.69831 7.71805,17.72458 0.33867,8.16096 -2.49501,14.82123 -8.83962,20.77663 l -5.01059,4.70321 1.45326,11.15281 c 0.79929,6.13406 2.43131,17.35253 3.6267,24.92995 l 2.17346,13.77714 34.60349,34.8555 c 33.95333,34.20058 34.64485,34.84368 36.80419,34.22652 5.46654,-1.56239 16.54364,-0.63791 20.7665,1.73314 12.73219,7.1489 16.98479,22.53711 9.86496,35.6967 -3.16616,5.85201 -4.30428,6.92153 -10.66902,10.02608 z m -83.50032,-5.61773 c -12.33902,4.50449 -24.30157,0.67829 -31.33531,-10.02253 -3.82842,-5.82439 -5.04378,-12.60211 -3.49702,-19.50188 l 1.16612,-5.20183 -25.85558,-26.55865 c -27.62922,-28.38052 -31.05533,-32.58212 -38.20915,-46.85739 -8.64924,-17.25935 -13.13704,-35.15905 -13.62797,-54.35557 -0.55347,-21.64186 3.98827,-39.35332 15.19994,-59.27529 2.2456,-3.99011 8.58712,-10.89045 32.00654,-34.82667 l 29.20613,-29.85063 -1.10167,-3.39938 c -2.14934,-6.63218 -2.20839,-12.79592 -0.17967,-18.75499 1.73429,-5.09425 2.92104,-6.88738 7.71926,-11.66354 7.03712,-7.00479 12.70594,-9.23205 22.22842,-8.73358 7.77349,0.40692 13.93642,3.15497 19.47336,8.68317 5.52221,5.5135 8.29449,11.68295 8.70973,19.3827 0.48744,9.03833 -2.20471,15.76301 -9.06847,22.6521 -4.12497,4.13997 -6.301,5.62439 -9.85692,6.72325 -6.70204,2.07112 -13.22584,2.22907 -19.38539,0.46937 l -5.45011,-1.55702 -27.98573,28.58235 c -26.2841,26.84444 -28.1919,28.97489 -31.37635,35.03802 -8.19389,15.60101 -12.05415,34.35464 -10.67111,51.84152 1.00162,12.66435 3.54186,22.62248 8.86573,34.75512 7.43446,16.94249 9.49816,19.59857 37.68947,48.50861 l 25.25563,25.8995 3.07129,-0.96317 c 14.55122,-4.56335 31.18771,6.39198 33.29055,21.92225 1.44015,10.63598 -6.23698,23.39724 -16.28172,27.06416 z M 187.11156,640.61634 c -10.56746,6.53356 -25.44062,4.98113 -33.98219,-3.54697 -4.19773,-4.19111 -7.46562,-11.69719 -7.71566,-17.72221 -0.32505,-7.83291 2.55747,-14.86747 8.55267,-20.87215 l 4.67896,-4.68635 -3.51034,-12.28172 c -1.93068,-6.75495 -4.30663,-16.5131 -5.27989,-21.68482 l -1.76956,-9.40309 -5.58743,-2.07303 c -11.06599,-4.10569 -19.96022,-17.42635 -18.91833,-28.3335 0.71055,-7.43842 3.29335,-13.24379 8.09991,-18.2062 4.31314,-4.45298 4.34367,-4.5384 3.14576,-8.79785 -2.069,-7.35683 -3.30744,-22.83048 -2.5154,-31.42839 0.97352,-10.56797 3.7563,-21.56923 8.03384,-31.76033 l 3.39791,-8.09544 -3.38953,-4.28543 c -4.48499,-5.67042 -6.11592,-11.06169 -5.63915,-18.64089 0.46039,-7.319 3.577,-13.66888 9.69445,-19.75181 14.71072,-14.62766 40.12987,-8.01673 46.89014,12.19506 1.19761,3.58057 1.99353,8.90262 1.76886,11.82755 -0.39775,5.17819 -4.59046,15.31268 -7.56923,18.29616 -3.3901,3.39545 -12.31345,7.68283 -17.72757,8.51749 -3.19015,0.49181 -6.2307,1.33309 -6.7568,1.86952 -1.83494,1.87097 -6.92611,16.27575 -8.25686,23.36156 -1.50671,8.02291 -1.43172,23.31879 0.15523,31.65368 l 1.05235,5.52716 6.58633,2.09853 c 16.55744,5.27548 24.45055,20.65613 18.81589,36.66496 -1.90134,5.40202 -3.00892,7.07626 -7.52379,11.37321 l -5.29423,5.0387 1.57891,7.98172 c 2.25798,11.41451 7.79419,33.71865 8.55898,34.48224 0.35621,0.35564 2.66474,1.40273 5.13009,2.32682 5.94398,2.22806 13.78442,9.95169 15.9289,15.69162 2.25942,6.04761 1.92082,15.22831 -0.75067,20.35373 -3.0063,5.76772 -6.65841,10.31709 -9.88255,12.31047 z m 133.5239,-309.35881 c -15.60738,11.12738 -37.08052,15.3749 -55.02938,10.88516 -24.43456,-6.11207 -43.82087,-26.83273 -48.06392,-51.37212 -3.50668,-20.28069 2.28361,-40.41473 16.06339,-55.85562 14.97973,-16.7855 37.19755,-24.34648 60.18833,-20.48277 13.01221,2.18675 21.05904,6.23939 32.03601,16.13432 9.86619,8.89366 13.63858,14.67347 18.13555,27.78615 8.78087,25.60404 -1.33827,57.22576 -23.32998,72.90488 z"
       id="path1"
       sodipodi:nodetypes="ccccccsssssssssssssssssssssssssssssccsscsssscsscsccsssssccsssscccccsssscssccccsssssssccsssscccccccscscsscssscccssssscssssssssssssssssssccssscsscccsscsssccsssssccccssccccccccccssssscccsscccsscsscccccscsssssssscssccsscsssssssssssssssssssssssssscsscssssssssscsssssscscssssssscsscssssssssscssssscsssssscsscssssscssssssscsscsssssscsssssssssscssscssssssssssssss" />
  </g>
</svg>
